<?xml version="1.0" encoding="UTF-8" standalone="no"?>
<!-- Created with Inkscape (http://www.inkscape.org/) -->

<svg
   xmlns:dc="http://purl.org/dc/elements/1.1/"
   xmlns:cc="http://creativecommons.org/ns#"
   xmlns:rdf="http://www.w3.org/1999/02/22-rdf-syntax-ns#"
   xmlns:svg="http://www.w3.org/2000/svg"
   xmlns="http://www.w3.org/2000/svg"
   xmlns:sodipodi="http://sodipodi.sourceforge.net/DTD/sodipodi-0.dtd"
   xmlns:inkscape="http://www.inkscape.org/namespaces/inkscape"
   id="svg2"
   version="1.1"
   inkscape:version="0.48.2 r9819"
   width="900"
   height="1350"
   xml:space="preserve"
   sodipodi:docname="jobActivityCH_treemap.svg"
   inkscape:export-filename="/Users/nguyendu/Google Drive/swissinfo/2014_05_27_MS_bank/analysis/inkscape/jobActivityCH_treemap.png"
   inkscape:export-xdpi="90"
   inkscape:export-ydpi="90"><metadata
     id="metadata8"><rdf:RDF><cc:Work
         rdf:about=""><dc:format>image/svg+xml</dc:format><dc:type
           rdf:resource="http://purl.org/dc/dcmitype/StillImage" /><dc:title></dc:title></cc:Work></rdf:RDF></metadata><defs
     id="defs6" /><sodipodi:namedview
     pagecolor="#ffffff"
     bordercolor="#666666"
     borderopacity="1"
     objecttolerance="10"
     gridtolerance="10"
     guidetolerance="10"
     inkscape:pageopacity="0"
     inkscape:pageshadow="2"
     inkscape:window-width="2560"
     inkscape:window-height="1418"
     id="namedview4"
     showgrid="false"
     inkscape:zoom="0.49445096"
     inkscape:cx="-557.40002"
     inkscape:cy="1135.9122"
     inkscape:window-x="1280"
     inkscape:window-y="0"
     inkscape:window-maximized="1"
     inkscape:current-layer="g10" /><g
     id="g10"
     inkscape:groupmode="layer"
     inkscape:label="jobActivityCH_treemap"
     transform="matrix(1.25,0,0,-1.25,0,1350)"><g
       id="g12" /><g
       id="g14" /><g
       id="g16" /><g
       id="g18"><text
         transform="matrix(1,0,0,-1,36.58,1047.77)"
         id="text20"><tspan
           style="font-size:20px;font-variant:normal;font-weight:normal;writing-mode:lr-tb;fill:#000000;fill-opacity:1;fill-rule:nonzero;stroke:none;font-family:Open Sans;-inkscape-font-specification:OpenSans"
           sodipodi:role="line"
           id="tspan22"
           x="0"
           y="0" /></text>
</g><path
       inkscape:connector-curvature="0"
       id="path26"
       style="fill:#255c53;fill-opacity:1;fill-rule:nonzero;stroke:#efe9e0;stroke-width:2.25;stroke-linecap:round;stroke-linejoin:round;stroke-miterlimit:10;stroke-opacity:1;stroke-dasharray:none"
       d="m 564.25,12.68 141.58,0 0,199.22 -141.58,0 0,-199.22 z" /><path
       inkscape:connector-curvature="0"
       id="path28"
       style="fill:#25535c;fill-opacity:1;fill-rule:nonzero;stroke:#efe9e0;stroke-width:2.25;stroke-linecap:round;stroke-linejoin:round;stroke-miterlimit:10;stroke-opacity:1;stroke-dasharray:none"
       d="m 564.25,7.09 141.58,0 0,5.6 -141.58,0 0,-5.6 z" /><path
       inkscape:connector-curvature="0"
       id="path30"
       style="fill:#ac673e;fill-opacity:1;fill-rule:nonzero;stroke:#efe9e0;stroke-width:2.25;stroke-linecap:round;stroke-linejoin:round;stroke-miterlimit:10;stroke-opacity:1;stroke-dasharray:none"
       d="m 14.17,7.09 550.07,0 0,204.82 -550.07,0 0,-204.82 z" /><path
       inkscape:connector-curvature="0"
       id="path32"
       style="fill:#5c252e;fill-opacity:1;fill-rule:nonzero;stroke:#efe9e0;stroke-width:2.25;stroke-linecap:round;stroke-linejoin:round;stroke-miterlimit:10;stroke-opacity:1;stroke-dasharray:none"
       d="m 14.17,211.91 168.57,0 0,288.59 -168.57,0 0,-288.59 z" /><path
       inkscape:connector-curvature="0"
       id="path34"
       style="fill:#5c252c;fill-opacity:1;fill-rule:nonzero;stroke:#efe9e0;stroke-width:2.25;stroke-linecap:round;stroke-linejoin:round;stroke-miterlimit:10;stroke-opacity:1;stroke-dasharray:none"
       d="m 182.74,211.91 158.69,0 0,288.59 -158.69,0 0,-288.59 z" /><path
       inkscape:connector-curvature="0"
       id="path36"
       style="fill:#5c252b;fill-opacity:1;fill-rule:nonzero;stroke:#efe9e0;stroke-width:2.25;stroke-linecap:round;stroke-linejoin:round;stroke-miterlimit:10;stroke-opacity:1;stroke-dasharray:none"
       d="m 664.74,211.91 41.09,0 0,96.42 -41.09,0 0,-96.42 z" /><path
       inkscape:connector-curvature="0"
       id="path38"
       style="fill:#5c2529;fill-opacity:1;fill-rule:nonzero;stroke:#efe9e0;stroke-width:2.25;stroke-linecap:round;stroke-linejoin:round;stroke-miterlimit:10;stroke-opacity:1;stroke-dasharray:none"
       d="m 341.43,356.12 223.06,0 0,164.1 -223.06,0 0,-164.1 z" /><path
       inkscape:connector-curvature="0"
       id="path40"
       style="fill:#5c2527;fill-opacity:1;fill-rule:nonzero;stroke:#efe9e0;stroke-width:2.25;stroke-linecap:round;stroke-linejoin:round;stroke-miterlimit:10;stroke-opacity:1;stroke-dasharray:none"
       d="m 14.17,500.5 327.26,0 0,253.24 -327.26,0 0,-253.24 z" /><path
       inkscape:connector-curvature="0"
       id="path42"
       style="fill:#5c2526;fill-opacity:1;fill-rule:nonzero;stroke:#efe9e0;stroke-width:2.25;stroke-linecap:round;stroke-linejoin:round;stroke-miterlimit:10;stroke-opacity:1;stroke-dasharray:none"
       d="m 531.43,520.22 174.4,0 0,233.52 -174.4,0 0,-233.52 z" /><path
       inkscape:connector-curvature="0"
       id="path44"
       style="fill:#5c2625;fill-opacity:1;fill-rule:nonzero;stroke:#efe9e0;stroke-width:2.25;stroke-linecap:round;stroke-linejoin:round;stroke-miterlimit:10;stroke-opacity:1;stroke-dasharray:none"
       d="m 564.49,211.91 100.25,0 0,96.42 -100.25,0 0,-96.42 z" /><path
       inkscape:connector-curvature="0"
       id="path46"
       style="fill:#5c2725;fill-opacity:1;fill-rule:nonzero;stroke:#efe9e0;stroke-width:2.25;stroke-linecap:round;stroke-linejoin:round;stroke-miterlimit:10;stroke-opacity:1;stroke-dasharray:none"
       d="m 341.43,211.91 223.06,0 0,144.21 -223.06,0 0,-144.21 z" /><path
       inkscape:connector-curvature="0"
       id="path48"
       style="fill:#5c2925;fill-opacity:1;fill-rule:nonzero;stroke:#efe9e0;stroke-width:2.25;stroke-linecap:round;stroke-linejoin:round;stroke-miterlimit:10;stroke-opacity:1;stroke-dasharray:none"
       d="m 564.49,308.32 141.34,0 0,211.9 -141.34,0 0,-211.9 z" /><path
       inkscape:connector-curvature="0"
       id="path50"
       style="fill:#5c2b25;fill-opacity:1;fill-rule:nonzero;stroke:#efe9e0;stroke-width:2.25;stroke-linecap:round;stroke-linejoin:round;stroke-miterlimit:10;stroke-opacity:1;stroke-dasharray:none"
       d="m 389.66,753.74 316.17,0 0,283.17 -316.17,0 0,-283.17 z" /><path
       inkscape:connector-curvature="0"
       id="path52"
       style="fill:#5c2c25;fill-opacity:1;fill-rule:nonzero;stroke:#efe9e0;stroke-width:2.25;stroke-linecap:round;stroke-linejoin:round;stroke-miterlimit:10;stroke-opacity:1;stroke-dasharray:none"
       d="m 341.43,520.22 190,0 0,233.52 -190,0 0,-233.52 z" /><path
       inkscape:connector-curvature="0"
       id="path54"
       style="fill:#5c2e25;fill-opacity:1;fill-rule:nonzero;stroke:#efe9e0;stroke-width:2.25;stroke-linecap:round;stroke-linejoin:round;stroke-miterlimit:10;stroke-opacity:1;stroke-dasharray:none"
       d="m 14.17,753.74 375.49,0 0,283.17 -375.49,0 0,-283.17 z" /><text
       id="text56"
       transform="scale(1,-1)"
       x="586.91998"
       y="-144.75"><tspan
         id="tspan58"
         sodipodi:role="line"
         y="-144.75"
         x="586.91998 598.31403 608.17798 615.52197 620.07599 628.64398 639.69598 644.25 650.604 661.65601 668.64001 678.73798"
         style="font-size:18px;font-variant:normal;font-weight:normal;writing-mode:lr-tb;fill:#ffffff;fill-opacity:1;fill-rule:nonzero;stroke:none;font-family:Open Sans;-inkscape-font-specification:OpenSans">Agriculture,</tspan></text>
<text
       id="text60"
       transform="scale(1,-1)"
       x="565.29999"
       y="-118.83"><tspan
         id="tspan62"
         sodipodi:role="line"
         y="-118.83"
         x="565.29999 576.35199 587.40399 598.45599 604.81 609.36401 620.41602 630.28003 634.69 639.37 645.47198 656.34399 663.328 673.42603 682.01202 688.36603 695.71002"
         style="font-size:18px;font-variant:normal;font-weight:normal;writing-mode:lr-tb;fill:#ffffff;fill-opacity:1;fill-rule:nonzero;stroke:none;font-family:Open Sans;-inkscape-font-specification:OpenSans">hunting, forestry</tspan></text>
<text
       id="text64"
       transform="scale(1,-1)"
       x="588.77002"
       y="-92.910004"><tspan
         id="tspan66"
         sodipodi:role="line"
         y="-92.910004"
         x="588.77002 598.77802 609.83002 620.86401 625.54401 631.646 636.20001 644.78601 655.83801 660.39203 671.44403"
         style="font-size:18px;font-variant:normal;font-weight:normal;writing-mode:lr-tb;fill:#ffffff;fill-opacity:1;fill-rule:nonzero;stroke:none;font-family:Open Sans;-inkscape-font-specification:OpenSans">and fishing</tspan></text>
<text
       id="text68"
       transform="scale(1,-1)"
       x="587.97998"
       y="-29.379999"><tspan
         y="-29.379999"
         x="587.97998"
         id="tspan70"
         sodipodi:role="line"
         style="font-size:18px;font-variant:normal;font-weight:normal;writing-mode:lr-tb;fill:#ffffff;fill-opacity:1;fill-rule:nonzero;stroke:none;font-family:Open Sans;-inkscape-font-specification:OpenSans" /></text>
<text
       id="text76"
       transform="scale(1,-1)"
       x="227.58"
       y="-103.07"><tspan
         id="tspan78"
         sodipodi:role="line"
         y="-103.07"
         x="227.58 243.834 253.842 264.89401 275.94601 282.048 292.056 300.62399 306.978 318.03 325.37399 329.92801 340.98001"
         style="font-size:18px;font-variant:normal;font-weight:normal;writing-mode:lr-tb;fill:#ffffff;fill-opacity:1;fill-rule:nonzero;stroke:none;font-family:Open Sans;-inkscape-font-specification:OpenSans">Manufacturing</tspan></text>
<text
       id="text80"
       transform="scale(1,-1)"
       x="44.450001"
       y="-349.78"><tspan
         id="tspan82"
         sodipodi:role="line"
         y="-349.78"
         x="44.450001 55.807999 66.68 77.732002 86.318001 92.671997 100.016 111.06799 119.63599 125.99 130.54401 141.416"
         style="font-size:18px;font-variant:normal;font-weight:normal;writing-mode:lr-tb;fill:#ffffff;fill-opacity:1;fill-rule:nonzero;stroke:none;font-family:Open Sans;-inkscape-font-specification:OpenSans">Construction</tspan></text>
<text
       id="text84"
       transform="scale(1,-1)"
       x="220.34"
       y="-349.78"><tspan
         id="tspan86"
         sodipodi:role="line"
         y="-349.78"
         x="220.34 230.34801 241.382 252.43401 261.00198 271.01001 277.36398 281.918 292.79001"
         style="font-size:18px;font-variant:normal;font-weight:normal;writing-mode:lr-tb;fill:#ffffff;fill-opacity:1;fill-rule:nonzero;stroke:none;font-family:Open Sans;-inkscape-font-specification:OpenSans">Education</tspan></text>
<text
       id="text88"
       transform="scale(1,-1)"
       x="671.94"
       y="-265.16"><tspan
         id="tspan90"
         sodipodi:role="line"
         y="-265.16"
         x="671.94 674.164 675.17603 677.41998 679.32397 680.73602 682.36798 683.38 685.284 686.29602 687.70801 689.56403 690.54401 691.58398 694.49597 696.71997"
         style="font-size:4px;font-variant:normal;font-weight:normal;writing-mode:lr-tb;fill:#ffffff;fill-opacity:1;fill-rule:nonzero;stroke:none;font-family:Open Sans;-inkscape-font-specification:OpenSans">Electricity, Gas</tspan></text>
<text
       id="text92"
       transform="scale(1,-1)"
       x="668.82001"
       y="-258.69"><tspan
         id="tspan94"
         sodipodi:role="line"
         y="-258.69"
         x="668.82001 671.04401 673.5 675.95203 676.992 680.61603 682.84003 684.25201 686.49597 688.12799 689.16803 691.36401 693.82001 696.27197 698.724 699.73602"
         style="font-size:4px;font-variant:normal;font-weight:normal;writing-mode:lr-tb;fill:#ffffff;fill-opacity:1;fill-rule:nonzero;stroke:none;font-family:Open Sans;-inkscape-font-specification:OpenSans">and Water Supply</tspan></text>
<text
       id="text96"
       transform="scale(1,-1)"
       x="416.14001"
       y="-457.66"><tspan
         id="tspan98"
         sodipodi:role="line"
         y="-457.66"
         x="416.14001 425.42801 429.98199 441.034 451.04199 462.09399 470.66199 475.216 485.224"
         style="font-size:18px;font-variant:normal;font-weight:normal;writing-mode:lr-tb;fill:#ffffff;fill-opacity:1;fill-rule:nonzero;stroke:none;font-family:Open Sans;-inkscape-font-specification:OpenSans">Financial</tspan></text>
<text
       id="text100"
       transform="scale(1,-1)"
       x="390.39001"
       y="-431.73999"><tspan
         id="tspan102"
         sodipodi:role="line"
         y="-431.73999"
         x="390.39001 395.41199 406.46399 412.81799 422.91602 430.26001 447 457.09799 468.13199 472.686 482.694 489.048 493.60199 504.474"
         style="font-size:18px;font-variant:normal;font-weight:normal;writing-mode:lr-tb;fill:#ffffff;fill-opacity:1;fill-rule:nonzero;stroke:none;font-family:Open Sans;-inkscape-font-specification:OpenSans">Intermediation</tspan></text>
<text
       id="text104"
       transform="scale(1,-1)"
       x="105.18"
       y="-646.60999"><tspan
         id="tspan106"
         sodipodi:role="line"
         y="-646.60999"
         x="105.18 118.464 128.562 138.56999 143.12399 149.478 160.53 165.20999 175.218 186.26999 197.304 201.98399 211.866 222.73799 231.306 235.85999 245.868"
         style="font-size:18px;font-variant:normal;font-weight:normal;writing-mode:lr-tb;fill:#ffffff;fill-opacity:1;fill-rule:nonzero;stroke:none;font-family:Open Sans;-inkscape-font-specification:OpenSans">Health and Social</tspan></text>
<text
       id="text108"
       transform="scale(1,-1)"
       x="155.81"
       y="-620.69"><tspan
         id="tspan110"
         sodipodi:role="line"
         y="-620.69"
         x="155.81 172.118 182.99001 190.334"
         style="font-size:18px;font-variant:normal;font-weight:normal;writing-mode:lr-tb;fill:#ffffff;fill-opacity:1;fill-rule:nonzero;stroke:none;font-family:Open Sans;-inkscape-font-specification:OpenSans">Work</tspan></text>
<text
       id="text112"
       transform="scale(1,-1)"
       x="573.37"
       y="-656.46997"><tspan
         id="tspan114"
         sodipodi:role="line"
         y="-656.46997"
         x="573.37 586.65399 597.526 603.88 613.97803 618.53198 627.11798 631.79797 641.80597 652.85797"
         style="font-size:18px;font-variant:normal;font-weight:normal;writing-mode:lr-tb;fill:#ffffff;fill-opacity:1;fill-rule:nonzero;stroke:none;font-family:Open Sans;-inkscape-font-specification:OpenSans">Hotels and</tspan></text>
<text
       id="text116"
       transform="scale(1,-1)"
       x="568.53003"
       y="-630.54999"><tspan
         id="tspan118"
         sodipodi:role="line"
         y="-630.54999"
         x="568.53003 579.65399 589.75201 598.33801 604.69202 614.70001 625.75201 632.73602 642.74402 653.79602 660.15002"
         style="font-size:18px;font-variant:normal;font-weight:normal;writing-mode:lr-tb;fill:#ffffff;fill-opacity:1;fill-rule:nonzero;stroke:none;font-family:Open Sans;-inkscape-font-specification:OpenSans">Restaurants</tspan></text>
<text
       id="text120"
       transform="scale(1,-1)"
       x="575.54999"
       y="-271.62"><tspan
         id="tspan122"
         sodipodi:role="line"
         y="-271.62"
         x="575.54999 582.92999 588.96997 595.10999 599.88 605.48999 611.63 617.66998 620.20001 626.33002 631.09998 633.70001 641.47998 644.01001 647.53998"
         style="font-size:10px;font-variant:normal;font-weight:normal;writing-mode:lr-tb;fill:#ffffff;fill-opacity:1;fill-rule:nonzero;stroke:none;font-family:Open Sans;-inkscape-font-specification:OpenSans">Households with</tspan></text>
<text
       id="text124"
       transform="scale(1,-1)"
       x="571.53003"
       y="-256.54999"><tspan
         id="tspan126"
         sodipodi:role="line"
         y="-256.54999"
         x="571.53003 577.09003 586.39001 592.52002 595.04999 600.89001 605.92999 611.53998 617.66998 620.27002 626.28998 631.90002 635.97998 640.75 646.78998 652.92999"
         style="font-size:10px;font-variant:normal;font-weight:normal;writing-mode:lr-tb;fill:#ffffff;fill-opacity:1;fill-rule:nonzero;stroke:none;font-family:Open Sans;-inkscape-font-specification:OpenSans">Employed Persons</tspan></text>
<text
       id="text128"
       transform="scale(1,-1)"
       x="375.44"
       y="-329.42999"><tspan
         id="tspan130"
         sodipodi:role="line"
         y="-329.42999"
         x="375.44 389.46201 395.81601 406.86801 416.966 424.31 428.98999 440.34799 451.22 467.95999 484.70001 495.75198 506.80399 511.358 517.71198 526.06396"
         style="font-size:18px;font-variant:normal;font-weight:normal;writing-mode:lr-tb;fill:#ffffff;fill-opacity:1;fill-rule:nonzero;stroke:none;font-family:Open Sans;-inkscape-font-specification:OpenSans">Other Community,</tspan></text>
<text
       id="text132"
       transform="scale(1,-1)"
       x="410.35001"
       y="-303.51001"><tspan
         id="tspan134"
         sodipodi:role="line"
         y="-303.51001"
         x="410.35001 420.23199 431.104 439.672 444.22601 454.23401 458.78799 463.46799 473.47601 484.52802"
         style="font-size:18px;font-variant:normal;font-weight:normal;writing-mode:lr-tb;fill:#ffffff;fill-opacity:1;fill-rule:nonzero;stroke:none;font-family:Open Sans;-inkscape-font-specification:OpenSans">Social and</tspan></text>
<text
       id="text136"
       transform="scale(1,-1)"
       x="384.16"
       y="-277.59"><tspan
         id="tspan138"
         sodipodi:role="line"
         y="-277.59"
         x="384.16 394.996 405.09399 412.43799 421.02399 431.896 442.948 452.95599 457.51001 462.19 472.07199 482.17001 489.51401 498.53201 503.086 511.65399"
         style="font-size:18px;font-variant:normal;font-weight:normal;writing-mode:lr-tb;fill:#ffffff;fill-opacity:1;fill-rule:nonzero;stroke:none;font-family:Open Sans;-inkscape-font-specification:OpenSans">Personal Service</tspan></text>
<text
       id="text140"
       transform="scale(1,-1)"
       x="415.94"
       y="-251.67"><tspan
         id="tspan142"
         sodipodi:role="line"
         y="-251.67"
         x="415.94 427.33401 435.90201 442.25601 446.81 455.828 460.38199 466.73599 471.29001 481.388"
         style="font-size:18px;font-variant:normal;font-weight:normal;writing-mode:lr-tb;fill:#ffffff;fill-opacity:1;fill-rule:nonzero;stroke:none;font-family:Open Sans;-inkscape-font-specification:OpenSans">Activities</tspan></text>
<text
       id="text144"
       transform="scale(1,-1)"
       x="615.47998"
       y="-460.51999"><tspan
         id="tspan146"
         sodipodi:role="line"
         y="-460.51999"
         x="615.47998 623.90802 632.50403 641.086 644.62799 648.16998"
         style="font-size:14px;font-variant:normal;font-weight:normal;writing-mode:lr-tb;fill:#ffffff;fill-opacity:1;fill-rule:nonzero;stroke:none;font-family:Open Sans;-inkscape-font-specification:OpenSans">Public</tspan></text>
<text
       id="text148"
       transform="scale(1,-1)"
       x="572.59998"
       y="-440.01999"><tspan
         id="tspan150"
         sodipodi:role="line"
         y="-440.01999"
         x="572.59998 581.46198 590.04401 603.06403 606.60602 615.20203 618.74402 625.422 630.36401 635.79602 643.58002 648.52197 652.06403 660.52002 669.11603 672.75598 680.53998 689.13599"
         style="font-size:14px;font-variant:normal;font-weight:normal;writing-mode:lr-tb;fill:#ffffff;fill-opacity:1;fill-rule:nonzero;stroke:none;font-family:Open Sans;-inkscape-font-specification:OpenSans">Administration and</tspan></text>
<text
       id="text152"
       transform="scale(1,-1)"
       x="606.40997"
       y="-419.51999"><tspan
         id="tspan154"
         sodipodi:role="line"
         y="-419.51999"
         x="606.40997 616.61603 624.46997 629.216 637.07001 645.66602 652.33002 660.18402"
         style="font-size:14px;font-variant:normal;font-weight:normal;writing-mode:lr-tb;fill:#ffffff;fill-opacity:1;fill-rule:nonzero;stroke:none;font-family:Open Sans;-inkscape-font-specification:OpenSans">Defence;</tspan></text>
<text
       id="text156"
       transform="scale(1,-1)"
       x="575.03003"
       y="-399.03"><tspan
         id="tspan158"
         sodipodi:role="line"
         y="-399.03"
         x="575.03003 583.86401 592.32001 605.34003 613.922 622.51801 626.06 632.73798 641.19403 646.90601 653.96198 657.60199 665.28802 673.74402 680.40802 683.95001 691.73401"
         style="font-size:14px;font-variant:normal;font-weight:normal;writing-mode:lr-tb;fill:#ffffff;fill-opacity:1;fill-rule:nonzero;stroke:none;font-family:Open Sans;-inkscape-font-specification:OpenSans">Compulsory Social</tspan></text>
<text
       id="text160"
       transform="scale(1,-1)"
       x="609.13"
       y="-378.53"><tspan
         id="tspan162"
         sodipodi:role="line"
         y="-378.53"
         x="609.13 616.81598 624.66998 631.33398 639.92999 645.64203 649.18402 654.12598"
         style="font-size:14px;font-variant:normal;font-weight:normal;writing-mode:lr-tb;fill:#ffffff;fill-opacity:1;fill-rule:nonzero;stroke:none;font-family:Open Sans;-inkscape-font-specification:OpenSans">Security</tspan></text>
<text
       id="text164"
       transform="scale(1,-1)"
       x="499.60001"
       y="-940.73999"><tspan
         id="tspan166"
         sodipodi:role="line"
         y="-940.73999"
         x="499.60001 510.724 520.82202 530.83002 535.38397 540.06403 550.07202 558.65802 565.01202 575.02002 581.37402 591.47198"
         style="font-size:18px;font-variant:normal;font-weight:normal;writing-mode:lr-tb;fill:#ffffff;fill-opacity:1;fill-rule:nonzero;stroke:none;font-family:Open Sans;-inkscape-font-specification:OpenSans">Real Estate,</tspan></text>
<text
       id="text168"
       transform="scale(1,-1)"
       x="497.31"
       y="-914.82001"><tspan
         id="tspan170"
         sodipodi:role="line"
         y="-914.82001"
         x="497.31 508.43399 518.53198 529.58398 535.93799 540.492 551.54401 561.40802 566.08801 576.09601 587.14801"
         style="font-size:18px;font-variant:normal;font-weight:normal;writing-mode:lr-tb;fill:#ffffff;fill-opacity:1;fill-rule:nonzero;stroke:none;font-family:Open Sans;-inkscape-font-specification:OpenSans">Renting and</tspan></text>
<text
       id="text172"
       transform="scale(1,-1)"
       x="510.64999"
       y="-888.90002"><tspan
         id="tspan174"
         sodipodi:role="line"
         y="-888.90002"
         x="510.64999 522.31403 533.36603 541.95203 546.50598 557.55798 567.65601 576.242"
         style="font-size:18px;font-variant:normal;font-weight:normal;writing-mode:lr-tb;fill:#ffffff;fill-opacity:1;fill-rule:nonzero;stroke:none;font-family:Open Sans;-inkscape-font-specification:OpenSans">Business</tspan></text>
<text
       id="text176"
       transform="scale(1,-1)"
       x="510.73001"
       y="-862.97998"><tspan
         id="tspan178"
         sodipodi:role="line"
         y="-862.97998"
         x="510.73001 522.12402 530.69202 537.04602 541.59998 550.61798 555.172 561.526 566.08002 576.17798"
         style="font-size:18px;font-variant:normal;font-weight:normal;writing-mode:lr-tb;fill:#ffffff;fill-opacity:1;fill-rule:nonzero;stroke:none;font-family:Open Sans;-inkscape-font-specification:OpenSans">Activities</tspan></text>
<text
       id="text180"
       transform="scale(1,-1)"
       x="359.20999"
       y="-656.46997"><tspan
         id="tspan182"
         sodipodi:role="line"
         y="-656.46997"
         x="359.20999 368.26401 375.24799 385.25601 396.30801 404.89401 415.92801 426.79999 434.14401 440.49802 444.90799 449.58801 459.47 465.82401 476.69601 483.67999 493.68799 503.552"
         style="font-size:18px;font-variant:normal;font-weight:normal;writing-mode:lr-tb;fill:#ffffff;fill-opacity:1;fill-rule:nonzero;stroke:none;font-family:Open Sans;-inkscape-font-specification:OpenSans">Transport, Storage</tspan></text>
<text
       id="text184"
       transform="scale(1,-1)"
       x="346.85999"
       y="-630.54999"><tspan
         id="tspan186"
         sodipodi:role="line"
         y="-630.54999"
         x="346.85999 356.86801 367.92001 378.95401 383.634 394.992 405.86401 422.604 439.34399 450.396 461.448 466.00198 474.57001 484.578 490.93201 495.48599 506.358 517.40997"
         style="font-size:18px;font-variant:normal;font-weight:normal;writing-mode:lr-tb;fill:#ffffff;fill-opacity:1;fill-rule:nonzero;stroke:none;font-family:Open Sans;-inkscape-font-specification:OpenSans">and Communications</tspan></text>
<text
       id="text188"
       transform="scale(1,-1)"
       x="140.28"
       y="-979.62"><tspan
         id="tspan190"
         sodipodi:role="line"
         y="-979.62"
         x="140.28 156.948 168 178.87199 183.42599 193.524 202.11 212.118 216.672 226.77 231.45 241.45801 252.51001"
         style="font-size:18px;font-variant:normal;font-weight:normal;writing-mode:lr-tb;fill:#ffffff;fill-opacity:1;fill-rule:nonzero;stroke:none;font-family:Open Sans;-inkscape-font-specification:OpenSans">Wholesale and</tspan></text>
<text
       id="text192"
       transform="scale(1,-1)"
       x="150.44"
       y="-953.70001"><tspan
         id="tspan194"
         sodipodi:role="line"
         y="-953.70001"
         x="150.44 161.564 171.662 178.01601 188.024 192.578 197.132 201.812 210.866 217.85001 227.858 238.892 248.99001"
         style="font-size:18px;font-variant:normal;font-weight:normal;writing-mode:lr-tb;fill:#ffffff;fill-opacity:1;fill-rule:nonzero;stroke:none;font-family:Open Sans;-inkscape-font-specification:OpenSans">Retail Trade,</tspan></text>
<text
       id="text196"
       transform="scale(1,-1)"
       x="135.82001"
       y="-927.78003"><tspan
         id="tspan198"
         sodipodi:role="line"
         y="-927.78003"
         x="135.82001 146.944 157.04201 168.076 178.084 182.638 189.98199 194.662 205.534 211.636 216.31601 232.57001 243.442 249.79601 260.668"
         style="font-size:18px;font-variant:normal;font-weight:normal;writing-mode:lr-tb;fill:#ffffff;fill-opacity:1;fill-rule:nonzero;stroke:none;font-family:Open Sans;-inkscape-font-specification:OpenSans">Repair of Motor</tspan></text>
<text
       id="text200"
       transform="scale(1,-1)"
       x="165.78"
       y="-901.85999"><tspan
         id="tspan202"
         sodipodi:role="line"
         y="-901.85999"
         x="165.78 176.13 186.228 197.28 201.834 210.40201 214.95599 225.054 233.64"
         style="font-size:18px;font-variant:normal;font-weight:normal;writing-mode:lr-tb;fill:#ffffff;fill-opacity:1;fill-rule:nonzero;stroke:none;font-family:Open Sans;-inkscape-font-specification:OpenSans">Vehicles,</tspan></text>
<text
       id="text204"
       transform="scale(1,-1)"
       x="133.14"
       y="-875.94"><tspan
         id="tspan206"
         sodipodi:role="line"
         y="-875.94"
         x="133.14 149.394 160.26601 166.62 177.492 184.476 193.04401 202.116 210.68401 215.23801 225.336 233.922 238.60201 248.61 259.66202"
         style="font-size:18px;font-variant:normal;font-weight:normal;writing-mode:lr-tb;fill:#ffffff;fill-opacity:1;fill-rule:nonzero;stroke:none;font-family:Open Sans;-inkscape-font-specification:OpenSans">Motorcycles and</tspan></text>
<text
       id="text208"
       transform="scale(1,-1)"
       x="146.85001"
       y="-850.02002"><tspan
         id="tspan210"
         sodipodi:role="line"
         y="-850.02002"
         x="146.85001 157.686 167.784 175.12801 183.714 194.586 205.638 215.646 220.2 224.88 234.888 245.94"
         style="font-size:18px;font-variant:normal;font-weight:normal;writing-mode:lr-tb;fill:#ffffff;fill-opacity:1;fill-rule:nonzero;stroke:none;font-family:Open Sans;-inkscape-font-specification:OpenSans">Personal and</tspan></text>
<text
       id="text212"
       transform="scale(1,-1)"
       x="126.64"
       y="-824.09998"><tspan
         id="tspan214"
         sodipodi:role="line"
         y="-824.09998"
         x="126.64 139.924 150.79601 161.84801 170.43401 180.532 191.584 202.45601 207.01001 218.04401 222.724 235.828 246.7 257.57202 268.60602"
         style="font-size:18px;font-variant:normal;font-weight:normal;writing-mode:lr-tb;fill:#ffffff;fill-opacity:1;fill-rule:nonzero;stroke:none;font-family:Open Sans;-inkscape-font-specification:OpenSans">Household Goods</tspan></text>
<path
       inkscape:connector-curvature="0"
       id="path216"
       style="fill:none;stroke:#efe9e0;stroke-width:1.5;stroke-linecap:round;stroke-linejoin:round;stroke-miterlimit:10;stroke-opacity:1;stroke-dasharray:none"
       d="m 564.25,7.09 141.58,0 0,204.82 -141.58,0 0,-204.82 z" /><path
       inkscape:connector-curvature="0"
       id="path218"
       style="fill:none;stroke:#efe9e0;stroke-width:1.5;stroke-linecap:round;stroke-linejoin:round;stroke-miterlimit:10;stroke-opacity:1;stroke-dasharray:none"
       d="m 14.17,7.09 550.07,0 0,204.82 -550.07,0 0,-204.82 z" /><path
       inkscape:connector-curvature="0"
       id="path220"
       style="fill:none;stroke:#efe9e0;stroke-width:1.5;stroke-linecap:round;stroke-linejoin:round;stroke-miterlimit:10;stroke-opacity:1;stroke-dasharray:none"
       d="m 14.17,211.91 691.65,0 0,825.01 -691.65,0 0,-825.01 z" /><g
       id="g222" /><text
       xml:space="preserve"
       style="font-size:32px;font-style:normal;font-variant:normal;font-weight:normal;font-stretch:normal;line-height:125%;letter-spacing:0px;word-spacing:0px;fill:#000000;fill-opacity:1;stroke:none;font-family:Athelas;-inkscape-font-specification:Athelas"
       x="18.305084"
       y="-1053.9187"
       id="text3316"
       sodipodi:linespacing="125%"
       transform="scale(1,-1)"><tspan
         sodipodi:role="line"
         id="tspan3318"
         x="18.305084"
         y="-1053.9187"
         style="font-size:19.20000076px;font-style:normal;font-variant:normal;font-weight:bold;font-stretch:normal;font-family:Open Sans;-inkscape-font-specification:Open Sans Bold">4.5 millions of job in Switzerland their repartition by economic activity</tspan></text>
<text
       xml:space="preserve"
       style="font-size:40px;font-style:normal;font-variant:normal;font-weight:normal;font-stretch:normal;line-height:125%;letter-spacing:0px;word-spacing:0px;fill:#000000;fill-opacity:1;stroke:none;font-family:Athelas;-inkscape-font-specification:Athelas"
       x="-787.97668"
       y="165.88983"
       id="text3320"
       sodipodi:linespacing="125%"
       transform="matrix(0.8,0,0,-0.8,0,1080)"><tspan
         sodipodi:role="line"
         id="tspan3322"></tspan></text>
</g></svg>