<?xml version="1.0" encoding="UTF-8" standalone="no"?>
<!-- Created with Inkscape (http://www.inkscape.org/) -->

<svg
   xmlns:dc="http://purl.org/dc/elements/1.1/"
   xmlns:cc="http://creativecommons.org/ns#"
   xmlns:rdf="http://www.w3.org/1999/02/22-rdf-syntax-ns#"
   xmlns:svg="http://www.w3.org/2000/svg"
   xmlns="http://www.w3.org/2000/svg"
   xmlns:sodipodi="http://sodipodi.sourceforge.net/DTD/sodipodi-0.dtd"
   xmlns:inkscape="http://www.inkscape.org/namespaces/inkscape"
   id="svg2"
   version="1.1"
   inkscape:version="0.48.2 r9819"
   width="900"
   height="1350"
   xml:space="preserve"
   sodipodi:docname="UBS_treemap1.svg"
   inkscape:export-filename="/Users/nguyendu/Google Drive/swissinfo/2014_05_27_MS_bank/analysis/inkscape/UBS_treemap1.png"
   inkscape:export-xdpi="90"
   inkscape:export-ydpi="90"><metadata
     id="metadata8"><rdf:RDF><cc:Work
         rdf:about=""><dc:format>image/svg+xml</dc:format><dc:type
           rdf:resource="http://purl.org/dc/dcmitype/StillImage" /><dc:title></dc:title></cc:Work></rdf:RDF></metadata><defs
     id="defs6" /><sodipodi:namedview
     pagecolor="#ffffff"
     bordercolor="#666666"
     borderopacity="1"
     objecttolerance="10"
     gridtolerance="10"
     guidetolerance="10"
     inkscape:pageopacity="0"
     inkscape:pageshadow="2"
     inkscape:window-width="2560"
     inkscape:window-height="1418"
     id="namedview4"
     showgrid="false"
     inkscape:zoom="0.69925926"
     inkscape:cx="1365.2542"
     inkscape:cy="675"
     inkscape:window-x="1280"
     inkscape:window-y="0"
     inkscape:window-maximized="1"
     inkscape:current-layer="g10" /><g
     id="g10"
     inkscape:groupmode="layer"
     inkscape:label="UBS_treemap"
     transform="matrix(1.25,0,0,-1.25,0,1350)"><g
       id="g12" /><g
       id="g14" /><g
       id="g16" /><path
       inkscape:connector-curvature="0"
       id="path26"
       style="fill:#336666;fill-opacity:1;fill-rule:nonzero;stroke:#efe9e0;stroke-width:2.25;stroke-linecap:round;stroke-linejoin:round;stroke-miterlimit:10;stroke-opacity:1;stroke-dasharray:none"
       d="m 14.17,16.69 457.19,0 0,190.93 -457.19,0 0,-190.93 z" /><path
       inkscape:connector-curvature="0"
       id="path28"
       style="fill:#535c8a;fill-opacity:1;fill-rule:nonzero;stroke:#efe9e0;stroke-width:2.25;stroke-linecap:round;stroke-linejoin:round;stroke-miterlimit:10;stroke-opacity:1;stroke-dasharray:none"
       d="m 14.17,486.72 464.63,0 0,577.8 -464.63,0 0,-577.8 z" /><path
       inkscape:connector-curvature="0"
       id="path30"
       style="fill:#5c538a;fill-opacity:1;fill-rule:nonzero;stroke:#efe9e0;stroke-width:2.25;stroke-linecap:round;stroke-linejoin:round;stroke-miterlimit:10;stroke-opacity:1;stroke-dasharray:none"
       d="m 478.8,486.72 227.02,0 0,577.8 -227.02,0 0,-577.8 z" /><path
       inkscape:connector-curvature="0"
       id="path32"
       style="fill:#663333;fill-opacity:1;fill-rule:nonzero;stroke:#efe9e0;stroke-width:2.25;stroke-linecap:round;stroke-linejoin:round;stroke-miterlimit:10;stroke-opacity:1;stroke-dasharray:none"
       d="m 471.36,16.69 234.47,0 0,209.72 -234.47,0 0,-209.72 z" /><path
       inkscape:connector-curvature="0"
       id="path34"
       style="fill:#9a2339;fill-opacity:1;fill-rule:nonzero;stroke:#efe9e0;stroke-width:2.25;stroke-linecap:round;stroke-linejoin:round;stroke-miterlimit:10;stroke-opacity:1;stroke-dasharray:none"
       d="m 629.47,276.72 76.36,0 0,210 -76.36,0 0,-210 z" /><path
       inkscape:connector-curvature="0"
       id="path36"
       style="fill:#9a2325;fill-opacity:1;fill-rule:nonzero;stroke:#efe9e0;stroke-width:2.25;stroke-linecap:round;stroke-linejoin:round;stroke-miterlimit:10;stroke-opacity:1;stroke-dasharray:none"
       d="m 471.36,276.72 158.11,0 0,210 -158.11,0 0,-210 z" /><path
       inkscape:connector-curvature="0"
       id="path38"
       style="fill:#9a3523;fill-opacity:1;fill-rule:nonzero;stroke:#efe9e0;stroke-width:2.25;stroke-linecap:round;stroke-linejoin:round;stroke-miterlimit:10;stroke-opacity:1;stroke-dasharray:none"
       d="m 471.36,226.41 234.47,0 0,50.31 -234.47,0 0,-50.31 z" /><path
       inkscape:connector-curvature="0"
       id="path40"
       style="fill:#ac673e;fill-opacity:1;fill-rule:nonzero;stroke:#efe9e0;stroke-width:2.25;stroke-linecap:round;stroke-linejoin:round;stroke-miterlimit:10;stroke-opacity:1;stroke-dasharray:none"
       d="m 14.17,207.61 457.19,0 0,279.1 -457.19,0 0,-279.1 z" /><text
       id="text42"
       transform="scale(1,-1)"
       x="18.969999"
       y="-189.79002"><tspan
         id="tspan44"
         sodipodi:role="line"
         y="-189.79002"
         x="18.969999 27.865999 37.689999 43.897999 53.562 63.370003 72.346001 81.241997 91.066002 95.225998 106.874 116.698 120.746 130.41 140.23399 144.394 153.29001 163.114 172.938 182.76201 191.658 195.70599 199.866 209.674 219.498 229.306 238.07401 247.05"
         style="font-size:16px;font-variant:normal;font-weight:normal;writing-mode:lr-tb;fill:#ffffff;fill-opacity:1;fill-rule:nonzero;stroke:none;font-family:Open Sans;-inkscape-font-specification:OpenSans">European Union annual budget</tspan></text>
<text
       id="text46"
       transform="scale(1,-1)"
       x="23.129999"
       y="-168.35004"><tspan
         id="tspan48"
         sodipodi:role="line"
         y="-168.35004"
         x="23.129999 32.282001 41.434002 50.585999 59.738003 63.993999 73.145996 82.297997 91.449997 95.610001 105.418"
         style="font-size:16px;font-variant:normal;font-weight:normal;writing-mode:lr-tb;fill:#999999;fill-opacity:1;fill-rule:nonzero;stroke:none;font-family:Open Sans;-inkscape-font-specification:OpenSans">$205.224 bn</tspan></text>
<text
       id="text50"
       transform="scale(1,-1)"
       x="18.969999"
       y="-1046.6898"><tspan
         id="tspan52"
         sodipodi:role="line"
         y="-1046.6898"
         x="18.969999 27.754 40.202 44.25 49.897999 57.386002 66.362 72.889999 76.937996 85.834 95.658005 105.466 109.626 118.522 128.34599 138.17 147.994 156.89 160.938 165.09801 176.746 188.41"
         style="font-size:16px;font-variant:normal;font-weight:normal;writing-mode:lr-tb;fill:#ffffff;fill-opacity:1;fill-rule:nonzero;stroke:none;font-family:Open Sans;-inkscape-font-specification:OpenSans">Switzerland annual GDP</tspan></text>
<text
       id="text54"
       transform="scale(1,-1)"
       x="23.129999"
       y="-1025.25"><tspan
         id="tspan56"
         sodipodi:role="line"
         y="-1025.25"
         x="23.129999 32.282001 41.434002 50.585999 59.738003 63.993999 73.145996 82.297997 91.449997 95.610001 105.418"
         style="font-size:16px;font-variant:normal;font-weight:normal;writing-mode:lr-tb;fill:#999999;fill-opacity:1;fill-rule:nonzero;stroke:none;font-family:Open Sans;-inkscape-font-specification:OpenSans">$631.173 bn</tspan></text>
<text
       id="text58"
       transform="scale(1,-1)"
       x="482"
       y="-1046.6898"><tspan
         id="tspan60"
         sodipodi:role="line"
         y="-1046.6898"
         x="482 490.784 503.23199 507.28 512.92804 520.41602 529.39203 535.92004 539.96802 548.86401 558.68805 568.49603 572.65601 578.30402 587.96802 593.61603 602.51202 606.56 610.72003 616.36804 622.57605 631.47205 641.28003 650.25604 654.41602 663.07202 671.45599 681.26404 690.92804 697.45599"
         style="font-size:16px;font-variant:normal;font-weight:normal;writing-mode:lr-tb;fill:#ffffff;fill-opacity:1;fill-rule:nonzero;stroke:none;font-family:Open Sans;-inkscape-font-specification:OpenSans">Switzerland total trade export</tspan></text>
<text
       id="text62"
       transform="scale(1,-1)"
       x="487.76001"
       y="-1025.25"><tspan
         id="tspan64"
         sodipodi:role="line"
         y="-1025.25"
         x="487.76001 496.91199 506.064 515.216 524.36798 528.62402 537.776 541.93597 551.74402"
         style="font-size:16px;font-variant:normal;font-weight:normal;writing-mode:lr-tb;fill:#999999;fill-opacity:1;fill-rule:nonzero;stroke:none;font-family:Open Sans;-inkscape-font-specification:OpenSans">$308.4 bn</tspan></text>
<text
       id="text66"
       transform="scale(1,-1)"
       x="476.16"
       y="-208.59003"><tspan
         id="tspan68"
         sodipodi:role="line"
         y="-208.59003"
         x="476.16 486.52802 495.42401 505.24799 514.01599 518.06403 526.96002 536.76801 545.74402 553.37598 563.20001 567.35999 576.25598 586.08002 595.90399 605.72797 614.62402 618.672 622.83197 634.47998 646.14398"
         style="font-size:16px;font-variant:normal;font-weight:normal;writing-mode:lr-tb;fill:#ffffff;fill-opacity:1;fill-rule:nonzero;stroke:none;font-family:Open Sans;-inkscape-font-specification:OpenSans">Bangladesh annual GDP</tspan></text>
<text
       id="text70"
       transform="scale(1,-1)"
       x="480.32001"
       y="-187.15004"><tspan
         id="tspan72"
         sodipodi:role="line"
         y="-187.15004"
         x="480.32001 489.47202 498.62399 507.776 516.92798 521.18402 530.336 539.48798 543.64801 553.45599"
         style="font-size:16px;font-variant:normal;font-weight:normal;writing-mode:lr-tb;fill:#999999;fill-opacity:1;fill-rule:nonzero;stroke:none;font-family:Open Sans;-inkscape-font-specification:OpenSans">$115.61 bn</tspan></text>
<text
       id="text74"
       transform="scale(1,-1)"
       x="632.67004"
       y="-468.89005"><tspan
         id="tspan76"
         sodipodi:role="line"
         y="-468.89005"
         x="632.67004 644.31805 654.68604 663.47003 667.63 671.67804 681.34204 688.974"
         style="font-size:16px;font-variant:normal;font-weight:normal;writing-mode:lr-tb;fill:#ffffff;fill-opacity:1;fill-rule:nonzero;stroke:none;font-family:Open Sans;-inkscape-font-specification:OpenSans">UBS loss</tspan></text>
<text
       id="text78"
       transform="scale(1,-1)"
       x="632.67004"
       y="-447.45004"><tspan
         id="tspan80"
         sodipodi:role="line"
         y="-447.45004"
         x="632.67004 642.47803 652.302 661.27802 665.43805 671.086"
         style="font-size:16px;font-variant:normal;font-weight:normal;writing-mode:lr-tb;fill:#ffffff;fill-opacity:1;fill-rule:nonzero;stroke:none;font-family:Open Sans;-inkscape-font-specification:OpenSans">due to</tspan></text>
<text
       id="text82"
       transform="scale(1,-1)"
       x="632.67004"
       y="-424.41003"><tspan
         id="tspan84"
         sodipodi:role="line"
         y="-424.41003"
         x="632.67004 640.302 650.12604 659.93402 669.742 676.27002 680.31799 695.198"
         style="font-size:16px;font-variant:normal;font-weight:normal;writing-mode:lr-tb;fill:#ffffff;fill-opacity:1;fill-rule:nonzero;stroke:none;font-family:Open Sans;-inkscape-font-specification:OpenSans">subprime</tspan></text>
<text
       id="text86"
       transform="scale(1,-1)"
       x="632.67004"
       y="-401.37003"><tspan
         id="tspan88"
         sodipodi:role="line"
         y="-401.37003"
         x="632.67004 640.28601 646.81403 650.862 658.49402 662.54205"
         style="font-size:16px;font-variant:normal;font-weight:normal;writing-mode:lr-tb;fill:#ffffff;fill-opacity:1;fill-rule:nonzero;stroke:none;font-family:Open Sans;-inkscape-font-specification:OpenSans">crisis</tspan></text>
<text
       id="text90"
       transform="scale(1,-1)"
       x="632.67004"
       y="-378.33005"><tspan
         id="tspan92"
         sodipodi:role="line"
         y="-378.33005"
         x="632.67004 636.71802 646.54205 650.70203 659.854 669.00604 678.15802"
         style="font-size:16px;font-variant:normal;font-weight:normal;writing-mode:lr-tb;fill:#ffffff;fill-opacity:1;fill-rule:nonzero;stroke:none;font-family:Open Sans;-inkscape-font-specification:OpenSans">in 2008</tspan></text>
<text
       id="text94"
       transform="scale(1,-1)"
       x="635.23004"
       y="-355.29004"><tspan
         id="tspan96"
         sodipodi:role="line"
         y="-355.29004"
         x="635.23004 644.38202 653.53406 662.68604 666.94208 676.09406 680.25403 690.06207"
         style="font-size:16px;font-variant:normal;font-weight:normal;writing-mode:lr-tb;fill:#999999;fill-opacity:1;fill-rule:nonzero;stroke:none;font-family:Open Sans;-inkscape-font-specification:OpenSans">$37.7 bn</tspan></text>
<text
       id="text98"
       transform="scale(1,-1)"
       x="476.16"
       y="-468.89005"><tspan
         id="tspan100"
         sodipodi:role="line"
         y="-468.89005"
         x="476.16 487.80801 498.17599 506.95999 511.12 526 534.896 541.42401 549.50403 558.47998"
         style="font-size:16px;font-variant:normal;font-weight:normal;writing-mode:lr-tb;fill:#ffffff;fill-opacity:1;fill-rule:nonzero;stroke:none;font-family:Open Sans;-inkscape-font-specification:OpenSans">UBS market</tspan></text>
<text
       id="text102"
       transform="scale(1,-1)"
       x="476.16"
       y="-445.85004"><tspan
         id="tspan104"
         sodipodi:role="line"
         y="-445.85004"
         x="476.16 483.776 492.672 502.48001 506.52802 512.17603 521.07202 525.12 529.16803 536.79999 545.69598 551.34399 555.39203 565.05603"
         style="font-size:16px;font-variant:normal;font-weight:normal;writing-mode:lr-tb;fill:#ffffff;fill-opacity:1;fill-rule:nonzero;stroke:none;font-family:Open Sans;-inkscape-font-specification:OpenSans">capitalisation</tspan></text>
<text
       id="text106"
       transform="scale(1,-1)"
       x="480.32001"
       y="-424.41003"><tspan
         id="tspan108"
         sodipodi:role="line"
         y="-424.41003"
         x="480.32001 489.47202 498.62399 507.776 512.03198 521.18402 530.336 534.49597 544.30402"
         style="font-size:16px;font-variant:normal;font-weight:normal;writing-mode:lr-tb;fill:#999999;fill-opacity:1;fill-rule:nonzero;stroke:none;font-family:Open Sans;-inkscape-font-specification:OpenSans">$78.06 bn</tspan></text>
<text
       id="text110"
       transform="scale(1,-1)"
       x="476.16"
       y="-258.89001"><tspan
         id="tspan112"
         sodipodi:role="line"
         y="-258.89001"
         x="476.16 487.80801 498.17599 506.95999 511.12 519.18402 528.15997 537.05603 543.58398 547.63202 555.69598 559.85602 569.52002 579.328 588.30402 594.51202 603.40802 609.05597 613.104 622.92798 631.69598 635.85602 639.90399 649.72797 657.34399 667.008 681.888"
         style="font-size:16px;font-variant:normal;font-weight:normal;writing-mode:lr-tb;fill:#ffffff;fill-opacity:1;fill-rule:nonzero;stroke:none;font-family:Open Sans;-inkscape-font-specification:OpenSans">UBS yearly operating income</tspan></text>
<text
       id="text114"
       transform="scale(1,-1)"
       x="480.32001"
       y="-237.45004"><tspan
         id="tspan116"
         sodipodi:role="line"
         y="-237.45004"
         x="480.32001 489.47202 498.62399 507.776 512.03198 521.18402 530.336 539.48798 543.64801 553.45599"
         style="font-size:16px;font-variant:normal;font-weight:normal;writing-mode:lr-tb;fill:#999999;fill-opacity:1;fill-rule:nonzero;stroke:none;font-family:Open Sans;-inkscape-font-specification:OpenSans">$27.732 bn</tspan></text>
<text
       id="text118"
       transform="scale(1,-1)"
       x="18.969999"
       y="-468.89005"><tspan
         id="tspan120"
         sodipodi:role="line"
         y="-468.89005"
         x="18.969999 30.618 34.666 44.330002 54.138 63.034 67.082001 71.241997 81.050003 90.874001 99.770004 106.298 121.178 130.07399 137.69 146.666 156.49001 162.138 166.186 173.802 182.698 186.746 194.37801 198.53799 213.418 222.314 228.842 236.922 245.89799"
         style="font-size:16px;font-variant:normal;font-weight:normal;writing-mode:lr-tb;fill:#ffffff;fill-opacity:1;fill-rule:nonzero;stroke:none;font-family:Open Sans;-inkscape-font-specification:OpenSans">Global pharmaceuticals market</tspan></text>
<text
       id="text122"
       transform="scale(1,-1)"
       x="23.129999"
       y="-447.45004"><tspan
         id="tspan124"
         sodipodi:role="line"
         y="-447.45004"
         x="23.129999 32.282001 41.434002 50.585999 59.738003 63.898003 73.706001"
         style="font-size:16px;font-variant:normal;font-weight:normal;writing-mode:lr-tb;fill:#999999;fill-opacity:1;fill-rule:nonzero;stroke:none;font-family:Open Sans;-inkscape-font-specification:OpenSans">$300 bn</tspan></text>
<path
       inkscape:connector-curvature="0"
       id="path126"
       style="fill:none;stroke:#efe9e0;stroke-width:2.25;stroke-linecap:round;stroke-linejoin:round;stroke-miterlimit:10;stroke-opacity:1;stroke-dasharray:none"
       d="m 14.17,16.69 457.19,0 0,190.93 -457.19,0 0,-190.93 z" /><path
       inkscape:connector-curvature="0"
       id="path128"
       style="fill:none;stroke:#efe9e0;stroke-width:2.25;stroke-linecap:round;stroke-linejoin:round;stroke-miterlimit:10;stroke-opacity:1;stroke-dasharray:none"
       d="m 14.17,486.72 691.65,0 0,577.8 -691.65,0 0,-577.8 z" /><path
       inkscape:connector-curvature="0"
       id="path130"
       style="fill:none;stroke:#efe9e0;stroke-width:2.25;stroke-linecap:round;stroke-linejoin:round;stroke-miterlimit:10;stroke-opacity:1;stroke-dasharray:none"
       d="m 471.36,16.69 234.47,0 0,209.72 -234.47,0 0,-209.72 z" /><path
       inkscape:connector-curvature="0"
       id="path132"
       style="fill:none;stroke:#efe9e0;stroke-width:2.25;stroke-linecap:round;stroke-linejoin:round;stroke-miterlimit:10;stroke-opacity:1;stroke-dasharray:none"
       d="m 471.36,226.41 234.47,0 0,260.3 -234.47,0 0,-260.3 z" /><path
       inkscape:connector-curvature="0"
       id="path134"
       style="fill:none;stroke:#efe9e0;stroke-width:2.25;stroke-linecap:round;stroke-linejoin:round;stroke-miterlimit:10;stroke-opacity:1;stroke-dasharray:none"
       d="m 14.17,207.61 457.19,0 0,279.1 -457.19,0 0,-279.1 z" /><g
       id="g136" /></g></svg>