<?xml version="1.0" encoding="UTF-8" standalone="no"?>
<!-- Created with Inkscape (http://www.inkscape.org/) -->

<svg
   xmlns:dc="http://purl.org/dc/elements/1.1/"
   xmlns:cc="http://creativecommons.org/ns#"
   xmlns:rdf="http://www.w3.org/1999/02/22-rdf-syntax-ns#"
   xmlns:svg="http://www.w3.org/2000/svg"
   xmlns="http://www.w3.org/2000/svg"
   xmlns:sodipodi="http://sodipodi.sourceforge.net/DTD/sodipodi-0.dtd"
   xmlns:inkscape="http://www.inkscape.org/namespaces/inkscape"
   id="svg2"
   version="1.1"
   inkscape:version="0.48.2 r9819"
   width="900"
   height="1350"
   xml:space="preserve"
   sodipodi:docname="UBS_treemap.svg"
   inkscape:export-filename="/Users/nguyendu/Google Drive/swissinfo/2014_05_27_MS_bank/analysis/inkscape/UBS_treemap1.png"
   inkscape:export-xdpi="90"
   inkscape:export-ydpi="90"><metadata
     id="metadata8"><rdf:RDF><cc:Work
         rdf:about=""><dc:format>image/svg+xml</dc:format><dc:type
           rdf:resource="http://purl.org/dc/dcmitype/StillImage" /><dc:title></dc:title></cc:Work></rdf:RDF></metadata><defs
     id="defs6" /><sodipodi:namedview
     pagecolor="#ffffff"
     bordercolor="#666666"
     borderopacity="1"
     objecttolerance="10"
     gridtolerance="10"
     guidetolerance="10"
     inkscape:pageopacity="0"
     inkscape:pageshadow="2"
     inkscape:window-width="2560"
     inkscape:window-height="1418"
     id="namedview4"
     showgrid="false"
     inkscape:zoom="0.69925926"
     inkscape:cx="736.01695"
     inkscape:cy="755.89781"
     inkscape:window-x="1280"
     inkscape:window-y="0"
     inkscape:window-maximized="1"
     inkscape:current-layer="g10" /><g
     id="g10"
     inkscape:groupmode="layer"
     inkscape:label="UBS_treemap"
     transform="matrix(1.25,0,0,-1.25,0,1350)"><g
       id="g12" /><g
       id="g14" /><g
       id="g16" /><g
       id="g18"><text
         transform="matrix(0,0,0,0,360,1072.91)"
         id="text20"><tspan
           style="fill:#000000;fill-opacity:1;fill-rule:nonzero;stroke:none;font-family:Open Sans;font-variant:normal;font-weight:normal;font-size:0;writing-mode:lr;-inkscape-font-specification:OpenSans"
           x="0 0 0 0 0"
           y="0"
           sodipodi:role="line"
           id="tspan22">value</tspan></text>
</g><path
       inkscape:connector-curvature="0"
       id="path26"
       style="fill:#255c53;fill-opacity:1;fill-rule:nonzero;stroke:#efe9e0;stroke-width:2.25;stroke-linecap:round;stroke-linejoin:round;stroke-miterlimit:10;stroke-opacity:1;stroke-dasharray:none"
       d="m 14.17,586.51 691.65,0 0,486.4 -691.65,0 0,-486.4 z" /><path
       inkscape:connector-curvature="0"
       id="path28"
       style="fill:#25535c;fill-opacity:1;fill-rule:nonzero;stroke:#efe9e0;stroke-width:2.25;stroke-linecap:round;stroke-linejoin:round;stroke-miterlimit:10;stroke-opacity:1;stroke-dasharray:none"
       d="m 14.17,348.85 691.65,0 0,237.66 -691.65,0 0,-237.66 z" /><path
       inkscape:connector-curvature="0"
       id="path30"
       style="fill:#1f5e87;fill-opacity:1;fill-rule:nonzero;stroke:#efe9e0;stroke-width:2.25;stroke-linecap:round;stroke-linejoin:round;stroke-miterlimit:10;stroke-opacity:1;stroke-dasharray:none"
       d="m 482.04,7.09 128.94,0 0,155.84 -128.94,0 0,-155.84 z" /><path
       inkscape:connector-curvature="0"
       id="path32"
       style="fill:#1f4d87;fill-opacity:1;fill-rule:nonzero;stroke:#efe9e0;stroke-width:2.25;stroke-linecap:round;stroke-linejoin:round;stroke-miterlimit:10;stroke-opacity:1;stroke-dasharray:none"
       d="m 610.98,7.09 94.85,0 0,155.84 -94.85,0 0,-155.84 z" /><path
       inkscape:connector-curvature="0"
       id="path34"
       style="fill:#1f3b87;fill-opacity:1;fill-rule:nonzero;stroke:#efe9e0;stroke-width:2.25;stroke-linecap:round;stroke-linejoin:round;stroke-miterlimit:10;stroke-opacity:1;stroke-dasharray:none"
       d="m 482.04,162.93 223.78,0 0,185.92 -223.78,0 0,-185.92 z" /><path
       inkscape:connector-curvature="0"
       id="path36"
       style="fill:#663333;fill-opacity:1;fill-rule:nonzero;stroke:#efe9e0;stroke-width:2.25;stroke-linecap:round;stroke-linejoin:round;stroke-miterlimit:10;stroke-opacity:1;stroke-dasharray:none"
       d="m 14.17,7.09 467.87,0 0,341.77 -467.87,0 0,-341.77 z" /><text
       id="text38"
       transform="scale(1,-1)"
       x="23.470001"
       y="-1051.3"><tspan
         id="tspan40"
         sodipodi:role="line"
         y="-1051.3"
         x="23.470001 31.705 43.374996 47.169994 52.464996 59.484993 67.899994 74.019997 77.814995 86.154999 95.36499 104.55999 108.46 119.38 130.315"
         style="font-size:15px;font-variant:normal;font-weight:normal;writing-mode:lr-tb;fill:#ffffff;fill-opacity:1;fill-rule:nonzero;stroke:none;font-family:Open Sans;-inkscape-font-specification:OpenSans">Switzerland GDP</tspan></text>
<text
       id="text42"
       transform="scale(1,-1)"
       x="23.470001"
       y="-1020.9"><tspan
         id="tspan44"
         sodipodi:role="line"
         y="-1020.9"
         x="23.470001 32.049999 40.629993 49.209995 57.789993 61.779995 70.359993 78.939995 87.519997 91.419991 100.61499"
         style="font-size:15px;font-variant:normal;font-weight:normal;writing-mode:lr-tb;fill:#ffffff;fill-opacity:1;fill-rule:nonzero;stroke:none;font-family:Open Sans;-inkscape-font-specification:OpenSans">$631.173 bn</tspan></text>
<text
       id="text46"
       transform="scale(1,-1)"
       x="21.870001"
       y="-566.50006"><tspan
         id="tspan48"
         sodipodi:role="line"
         y="-566.50006"
         x="21.870001 30.105 41.774998 45.569996 50.864998 57.884995 66.299995 72.419998 76.214996 84.555 93.764992 102.95999 106.86 112.155 121.215 126.51 134.85002 138.64502 142.54501 147.84001 153.66 162.00002 171.19501 179.61002 183.51001 191.62502 199.48502 208.68001 217.74001 223.86002"
         style="font-size:15px;font-variant:normal;font-weight:normal;writing-mode:lr-tb;fill:#ffffff;fill-opacity:1;fill-rule:nonzero;stroke:none;font-family:Open Sans;-inkscape-font-specification:OpenSans">Switzerland total trade export</tspan></text>
<text
       id="text50"
       transform="scale(1,-1)"
       x="21.870001"
       y="-532.8999"><tspan
         id="tspan52"
         sodipodi:role="line"
         y="-532.8999"
         x="21.870001 30.450001 39.029995 47.609997 56.189995 60.179996 68.759995 72.659996 81.854996"
         style="font-size:15px;font-variant:normal;font-weight:normal;writing-mode:lr-tb;fill:#ffffff;fill-opacity:1;fill-rule:nonzero;stroke:none;font-family:Open Sans;-inkscape-font-specification:OpenSans">$308.4 bn</tspan></text>
<text
       id="text54"
       transform="scale(1,-1)"
       x="489.74002"
       y="-144.51999"><tspan
         id="tspan56"
         sodipodi:role="line"
         y="-144.51999"
         x="489.74002 500.66 510.38"
         style="font-size:15px;font-variant:normal;font-weight:normal;writing-mode:lr-tb;fill:#ffffff;fill-opacity:1;fill-rule:nonzero;stroke:none;font-family:Open Sans;-inkscape-font-specification:OpenSans">UBS</tspan></text>
<text
       id="text58"
       transform="scale(1,-1)"
       x="489.74002"
       y="-122.92"><tspan
         id="tspan60"
         sodipodi:role="line"
         y="-122.92"
         x="489.74002 493.535 502.595 509.75 516.90497 520.80493 529.99994 539.20996 547.62494 551.52496 556.81995"
         style="font-size:15px;font-variant:normal;font-weight:normal;writing-mode:lr-tb;fill:#ffffff;fill-opacity:1;fill-rule:nonzero;stroke:none;font-family:Open Sans;-inkscape-font-specification:OpenSans">loss due to</tspan></text>
<text
       id="text62"
       transform="scale(1,-1)"
       x="489.74002"
       y="-101.32"><tspan
         id="tspan64"
         sodipodi:role="line"
         y="-101.32"
         x="489.74002 496.89502 506.10501 515.29993 524.49493 530.61493 534.40997 548.35992"
         style="font-size:15px;font-variant:normal;font-weight:normal;writing-mode:lr-tb;fill:#ffffff;fill-opacity:1;fill-rule:nonzero;stroke:none;font-family:Open Sans;-inkscape-font-specification:OpenSans">subprime</tspan></text>
<text
       id="text66"
       transform="scale(1,-1)"
       x="489.74002"
       y="-79.720001"><tspan
         id="tspan68"
         sodipodi:role="line"
         y="-79.720001"
         x="489.74002 496.88 503 506.79501 513.94995 517.74493 524.89996 528.79993 532.59497 541.80493 545.70496 554.28497 562.86493 571.44495"
         style="font-size:15px;font-variant:normal;font-weight:normal;writing-mode:lr-tb;fill:#ffffff;fill-opacity:1;fill-rule:nonzero;stroke:none;font-family:Open Sans;-inkscape-font-specification:OpenSans">crisis in 2008</tspan></text>
<text
       id="text70"
       transform="scale(1,-1)"
       x="489.74002"
       y="-44.519997"><tspan
         id="tspan72"
         sodipodi:role="line"
         y="-44.519997"
         x="489.74002 498.32001 506.90002 515.47998 519.46997 528.04993 531.94995 541.14496"
         style="font-size:15px;font-variant:normal;font-weight:normal;writing-mode:lr-tb;fill:#ffffff;fill-opacity:1;fill-rule:nonzero;stroke:none;font-family:Open Sans;-inkscape-font-specification:OpenSans">$37.7 bn</tspan></text>
<text
       id="text74"
       transform="scale(1,-1)"
       x="618.67993"
       y="-144.51999"><tspan
         id="tspan76"
         sodipodi:role="line"
         y="-144.51999"
         x="618.67993 629.59998 639.31995"
         style="font-size:15px;font-variant:normal;font-weight:normal;writing-mode:lr-tb;fill:#ffffff;fill-opacity:1;fill-rule:nonzero;stroke:none;font-family:Open Sans;-inkscape-font-specification:OpenSans">UBS</tspan></text>
<text
       id="text78"
       transform="scale(1,-1)"
       x="618.67993"
       y="-122.92"><tspan
         id="tspan80"
         sodipodi:role="line"
         y="-122.92"
         x="618.67993 626.23993 634.65497 642.99493 649.11493 652.90997"
         style="font-size:15px;font-variant:normal;font-weight:normal;writing-mode:lr-tb;fill:#ffffff;fill-opacity:1;fill-rule:nonzero;stroke:none;font-family:Open Sans;-inkscape-font-specification:OpenSans">yearly</tspan></text>
<text
       id="text82"
       transform="scale(1,-1)"
       x="618.67993"
       y="-101.32"><tspan
         id="tspan84"
         sodipodi:role="line"
         y="-101.32"
         x="618.67993 627.73993 636.93494 645.34998 651.16998 659.50995 664.80493 668.59998 677.80994"
         style="font-size:15px;font-variant:normal;font-weight:normal;writing-mode:lr-tb;fill:#ffffff;fill-opacity:1;fill-rule:nonzero;stroke:none;font-family:Open Sans;-inkscape-font-specification:OpenSans">operating</tspan></text>
<text
       id="text86"
       transform="scale(1,-1)"
       x="618.67993"
       y="-79.720001"><tspan
         id="tspan88"
         sodipodi:role="line"
         y="-79.720001"
         x="618.67993 622.47498 631.68494 638.82495 647.88495 661.83496"
         style="font-size:15px;font-variant:normal;font-weight:normal;writing-mode:lr-tb;fill:#ffffff;fill-opacity:1;fill-rule:nonzero;stroke:none;font-family:Open Sans;-inkscape-font-specification:OpenSans">income</tspan></text>
<text
       id="text90"
       transform="scale(1,-1)"
       x="615.47998"
       y="-46.119995"><tspan
         id="tspan92"
         sodipodi:role="line"
         y="-46.119995"
         x="615.47998 624.06 632.64001 641.21997 645.21002 653.78998 662.37 670.95001 674.84998 684.04498"
         style="font-size:15px;font-variant:normal;font-weight:normal;writing-mode:lr-tb;fill:#ffffff;fill-opacity:1;fill-rule:nonzero;stroke:none;font-family:Open Sans;-inkscape-font-specification:OpenSans">$27.732 bn</tspan></text>
<text
       id="text94"
       transform="scale(1,-1)"
       x="489.74002"
       y="-330.44"><tspan
         id="tspan96"
         sodipodi:role="line"
         y="-330.44"
         x="489.74002 500.66 510.38 518.61493 522.51495 536.46497 544.80493 550.92493 558.49994 566.91498"
         style="font-size:15px;font-variant:normal;font-weight:normal;writing-mode:lr-tb;fill:#ffffff;fill-opacity:1;fill-rule:nonzero;stroke:none;font-family:Open Sans;-inkscape-font-specification:OpenSans">UBS market capitalisation</tspan></text>
<text
       id="text98"
       transform="scale(1,-1)"
       x="550.53949"
       y="-312.04001"><tspan
         id="tspan100"
         sodipodi:role="line"
         style="font-size:15px;font-variant:normal;font-weight:normal;writing-mode:lr-tb;fill:#ffffff;fill-opacity:1;fill-rule:nonzero;stroke:none;font-family:Open Sans;-inkscape-font-specification:OpenSans"
         x="550.53949"
         y="-312.04001" /></text>
<text
       id="text102"
       transform="scale(1,-1)"
       x="489.74002"
       y="-299.24011"><tspan
         id="tspan104"
         sodipodi:role="line"
         y="-299.24011"
         x="489.74002 498.32001 506.90002 515.47998 519.46997 528.04993 536.62994 540.52997 549.72498"
         style="font-size:15px;font-variant:normal;font-weight:normal;writing-mode:lr-tb;fill:#ffffff;fill-opacity:1;fill-rule:nonzero;stroke:none;font-family:Open Sans;-inkscape-font-specification:OpenSans">$78.06 bn</tspan></text>
<text
       id="text106"
       transform="scale(1,-1)"
       x="21.870001"
       y="-330.44"><tspan
         id="tspan108"
         sodipodi:role="line"
         y="-330.44"
         x="21.870001 32.790001 36.584995 45.644997 54.839996 63.179996 66.974998 70.875 80.07 89.279999 97.619995 103.74 117.68999 126.03 133.17001 141.58501 150.79501 156.09001 159.88501 167.02501 175.36501 179.16 186.31502 190.21501 204.16501 212.505 218.62502 226.20001 234.61501"
         style="font-size:15px;font-variant:normal;font-weight:normal;writing-mode:lr-tb;fill:#ffffff;fill-opacity:1;fill-rule:nonzero;stroke:none;font-family:Open Sans;-inkscape-font-specification:OpenSans">Global pharmaceuticals market</tspan></text>
<text
       id="text110"
       transform="scale(1,-1)"
       x="21.870001"
       y="-301.64005"><tspan
         id="tspan112"
         sodipodi:role="line"
         y="-301.64005"
         x="21.870001 30.450001 39.029995 47.609997 56.189995 60.089996 69.284996"
         style="font-size:15px;font-variant:normal;font-weight:normal;writing-mode:lr-tb;fill:#ffffff;fill-opacity:1;fill-rule:nonzero;stroke:none;font-family:Open Sans;-inkscape-font-specification:OpenSans">$300 bn</tspan></text>
<path
       inkscape:connector-curvature="0"
       id="path114"
       style="fill:none;stroke:#efe9e0;stroke-width:2.25;stroke-linecap:round;stroke-linejoin:round;stroke-miterlimit:10;stroke-opacity:1;stroke-dasharray:none"
       d="m 14.17,348.85 691.65,0 0,724.06 -691.65,0 0,-724.06 z" /><path
       inkscape:connector-curvature="0"
       id="path116"
       style="fill:none;stroke:#efe9e0;stroke-width:2.25;stroke-linecap:round;stroke-linejoin:round;stroke-miterlimit:10;stroke-opacity:1;stroke-dasharray:none"
       d="m 482.04,7.09 223.78,0 0,341.77 -223.78,0 0,-341.77 z" /><path
       inkscape:connector-curvature="0"
       id="path118"
       style="fill:none;stroke:#efe9e0;stroke-width:2.25;stroke-linecap:round;stroke-linejoin:round;stroke-miterlimit:10;stroke-opacity:1;stroke-dasharray:none"
       d="m 14.17,7.09 467.87,0 0,341.77 -467.87,0 0,-341.77 z" /><g
       id="g120" /></g></svg>